<?xml version="1.0" encoding="UTF-8"?>
<svg id="Calque_1" data-name="Calque 1" xmlns="http://www.w3.org/2000/svg" viewBox="0 0 48 48">
  <defs>
    <style>
      .cls-1 {
        fill: #fff;
      }
    </style>
  </defs>
  <path class="cls-1" d="m23.99,40.55c-.66,0-1.22-.23-1.67-.68s-.68-1.01-.68-1.67v-21.75l-9.2,9.25c-.48.47-1.04.7-1.66.7s-1.17-.23-1.64-.7c-.5-.47-.75-1.03-.75-1.69s.25-1.23.75-1.71l13.2-13.2c.21-.26.47-.45.76-.57.29-.12.6-.18.92-.18.28,0,.57.06.85.18.28.12.54.31.77.58l13.25,13.2c.47.48.7,1.05.7,1.71s-.23,1.22-.69,1.69c-.49.47-1.06.7-1.68.7s-1.17-.23-1.62-.7l-9.25-9.25v21.75c0,.66-.23,1.21-.68,1.67-.46.45-1.01.68-1.68.68Z"/>
</svg>